<svg width="147" height="32" xmlns="http://www.w3.org/2000/svg" xmlns:svg="http://www.w3.org/2000/svg">
 <!-- Generator: Sketch 3.0.4 (8053) - http://www.bohemiancoding.com/sketch -->
 <title>button</title>
 <desc>Created with Sketch.</desc>

 <g>
  <title>Layer 1</title>
  <g fill-rule="evenodd" fill="none" id="Page-1">
   <g id="button">
    <rect y="0" rx="4" height="32" width="147" x="0" fill="#7056BF" id="deployed"/>
    <g fill="#FFFFFF" id="Icon">
     <path id="App" d="m18.64908,8.36834l-5.716,-2.966c-0.639,-0.332 -1.567,-0.331 -2.205,0l-5.717,2.966c-0.685,0.355 -1.181,1.149 -1.181,1.886l0,5.933c0,0.739 0.497,1.531 1.181,1.886l2.858,1.483c0.49,0.252 1.095,0.063 1.349,-0.426c0.254,-0.491 0.063,-1.094 -0.427,-1.349l-2.855,-1.481c-0.038,-0.024 -0.098,-0.109 -0.106,-0.113l-0.004,-5.892c0.012,-0.045 0.072,-0.13 0.107,-0.152l5.713,-2.965c0.081,-0.035 0.29,-0.034 0.365,-0.001l5.713,2.964c0.038,0.024 0.098,0.109 0.106,0.113l0.003,5.893c-0.011,0.044 -0.071,0.129 -0.105,0.151l-2.859,1.483c-0.49,0.255 -0.681,0.858 -0.427,1.349c0.178,0.342 0.528,0.539 0.889,0.539c0.155,0 0.313,-0.036 0.46,-0.113l2.857,-1.483c0.685,-0.355 1.182,-1.147 1.182,-1.886l0,-5.933c0,-0.737 -0.496,-1.531 -1.181,-1.886"/>
     <path id="Arrow" d="m15.53708,14.85934c0.391,-0.391 0.391,-1.023 0,-1.414l-2.999,-2.999c-0.092,-0.093 -0.203,-0.166 -0.326,-0.217c-0.244,-0.101 -0.52,-0.101 -0.764,0c-0.123,0.051 -0.233,0.124 -0.326,0.217l-2.999,2.999c-0.391,0.391 -0.391,1.023 0,1.414c0.195,0.195 0.451,0.293 0.707,0.293c0.256,0 0.512,-0.098 0.707,-0.293l1.293,-1.293l0,6.586c0,0.553 0.447,1 1,1c0.553,0 1,-0.447 1,-1l0,-6.586l1.293,1.293c0.195,0.195 0.451,0.293 0.707,0.293c0.256,0 0.512,-0.098 0.707,-0.293"/>
    </g>
    <path fill="#B7A7D5" id="to-Heroku" d="m86.6137,20.14178c0.351,0 0.78,-0.039 0.975,-0.078l0,-0.923c-0.182,0.052 -0.455,0.091 -0.702,0.091c-0.832,0 -1.066,-0.364 -1.066,-1.092l0,-4.03l1.781,0l0,-0.923l-1.781,0l0,-2.444l-1.118,0l0,2.444l-1.196,0l0,0.923l1.196,0l0,4.277c0,1.196 0.468,1.755 1.911,1.755zm5.304,0.052c1.677,0 3.185,-1.222 3.185,-3.575c0,-2.366 -1.508,-3.575 -3.185,-3.575c-1.69,0 -3.198,1.209 -3.198,3.575c0,2.353 1.521,3.575 3.198,3.575zm0,-0.949c-1.391,0 -2.067,-1.17 -2.067,-2.626c0,-1.547 0.754,-2.613 2.067,-2.613c1.365,0 2.054,1.183 2.054,2.613c0,1.573 -0.754,2.626 -2.054,2.626zm8.008,0.806l1.144,0l0,-4.537l4.953,0l0,4.537l1.144,0l0,-9.62l-1.144,0l0,4.03l-4.953,0l0,-4.03l-1.144,0l0,9.62zm12.129,0.143c1.287,0 2.158,-0.546 2.795,-1.456l-0.65,-0.572c-0.52,0.715 -1.079,1.118 -2.067,1.118c-1.131,0 -2.028,-0.832 -2.067,-2.379l4.849,0l0,-0.234c0,-2.483 -1.235,-3.627 -2.86,-3.627c-1.443,0 -3.107,1.079 -3.107,3.575c0,2.392 1.482,3.575 3.107,3.575zm-1.963,-4.16c0.156,-1.417 1.027,-2.054 1.95,-2.054c1.131,0 1.716,0.832 1.807,2.054l-3.757,0zm6.422,4.017l1.118,0l0,-4.433c0.507,-0.975 1.326,-1.547 2.418,-1.547c0.039,0 0.286,0 0.325,0.013l0.078,-1.04l-0.143,0c-1.339,0 -2.145,0.624 -2.652,1.417l-0.026,0l0,-1.274l-1.118,0l0,6.864zm8.008,0.143c1.677,0 3.185,-1.222 3.185,-3.575c0,-2.366 -1.508,-3.575 -3.185,-3.575c-1.69,0 -3.198,1.209 -3.198,3.575c0,2.353 1.521,3.575 3.198,3.575zm0,-0.949c-1.391,0 -2.067,-1.17 -2.067,-2.626c0,-1.547 0.754,-2.613 2.067,-2.613c1.365,0 2.054,1.183 2.054,2.613c0,1.573 -0.754,2.626 -2.054,2.626zm4.771,0.806l1.118,0l0,-2.106l1.365,-1.469l2.028,3.575l1.196,0l-2.496,-4.407l2.249,-2.457l-1.274,0l-3.068,3.432l0,-6.188l-1.118,0l0,9.62zm8.983,0.13c1.118,0 1.976,-0.572 2.574,-1.157l0,1.027l1.131,0l0,-6.864l-1.131,0l0,4.953c-0.715,0.676 -1.391,1.105 -2.223,1.105c-0.871,0 -1.261,-0.429 -1.261,-1.339l0,-4.719l-1.118,0l0,4.953c0,1.3 0.715,2.041 2.028,2.041l0,0z"/>
    <path fill="#FFFFFF" id="Deploy" d="m20.89394,19.57617l2.46084,0c2.96563,0 4.70715,-1.573 4.70715,-4.836c0,-3.224 -1.70366,-4.784 -4.70715,-4.784l-2.46084,0l0,9.62zm1.11053,-1.027l0,-7.54l1.46389,0c2.27155,0 3.48304,1.144 3.48304,3.731c0,2.678 -1.19887,3.809 -3.4578,3.809l-1.48913,0zm10.36078,1.17c1.24935,0 2.09487,-0.546 2.71324,-1.456l-0.63099,-0.572c-0.50479,0.715 -1.04744,1.118 -2.00653,1.118c-1.09791,0 -1.96867,-0.832 -2.00653,-2.379l4.70715,0l0,-0.234c0,-2.483 -1.19887,-3.627 -2.77633,-3.627c-1.40079,0 -3.01611,1.079 -3.01611,3.575c0,2.392 1.43865,3.575 3.01611,3.575zm-1.90558,-4.16c0.15144,-1.417 0.99696,-2.054 1.89296,-2.054c1.09791,0 1.6658,0.832 1.75414,2.054l-3.64709,0zm6.23413,6.617l1.08529,0l0,-3.484c0.56789,0.611 1.26197,0.988 2.08225,0.988c1.62794,0 2.82681,-1.157 2.82681,-3.549c0,-2.392 -1.18625,-3.562 -2.71324,-3.562c-0.99696,0 -1.69104,0.52 -2.19583,1.092l0,-0.949l-1.08529,0l0,9.464zm3.01611,-3.406c-0.7067,0 -1.35031,-0.364 -1.93081,-1.04l0,-3.146c0.55527,-0.624 1.17363,-1.053 1.94343,-1.053c1.07267,0 1.88034,0.858 1.88034,2.613c0,1.82 -0.73194,2.626 -1.89296,2.626zm4.61881,0.806l1.08529,0l0,-9.62l-1.08529,0l0,9.62zm5.80506,0.143c1.62794,0 3.09183,-1.222 3.09183,-3.575c0,-2.366 -1.46389,-3.575 -3.09183,-3.575c-1.64056,0 -3.10445,1.209 -3.10445,3.575c0,2.353 1.47651,3.575 3.10445,3.575zm0,-0.949c-1.35031,0 -2.00653,-1.17 -2.00653,-2.626c0,-1.547 0.73194,-2.613 2.00653,-2.613c1.32507,0 1.99391,1.183 1.99391,2.613c0,1.573 -0.73194,2.626 -1.99391,2.626zm5.01002,3.445c1.29983,0 1.81724,-0.65 2.27155,-1.859l2.85205,-7.644l-1.09791,0l-1.95605,5.551l-0.02524,0l-1.95605,-5.551l-1.14839,0l2.57442,6.903l-0.25239,0.676c-0.26501,0.676 -0.59313,0.975 -1.27459,0.975c-0.46693,0 -0.79504,-0.065 -0.98434,-0.117l-0.25239,0.897c0.29025,0.091 0.65622,0.169 1.24935,0.169l0,0z"/>
   </g>
  </g>
  <text font-weight="normal" font-style="normal" transform="matrix(0.7722392678260803,0,0,0.5627570152282715,13.715466590598226,24.458279460668564) " xml:space="preserve" text-anchor="middle" font-family="Serif" font-size="24" id="svg_2" y="-8.28387" x="70.63574" stroke-linecap="null" stroke-linejoin="null" stroke-dasharray="null" stroke-width="0" fill="#ffffff">ed</text>
 </g>
</svg>