<svg width="200" height="20" xmlns="http://www.w3.org/2000/svg" xmlns:svg="http://www.w3.org/2000/svg">
 <metadata id="metadata34">image/svg+xml</metadata>

 <linearGradient id="b" x2="0" y2="1" x1="0" y1="0">
  <stop offset="0" stop-color="#bbb" stop-opacity="0.1" id="stop5"/>
  <stop offset="1" stop-opacity="0.1" id="stop7"/>
 </linearGradient>
 <clipPath id="a">
  <rect width="200" height="20" rx="3" fill="#fff" id="rect10"/>
 </clipPath>
 <g>
  <title>Layer 1</title>
  <g stroke="null" clip-path="url(#a)" id="g12">
   <path stroke="null" fill="#2d3c49" d="m0,1.612872l82.850996,0l0,17.926306l-82.850996,0l0,-17.926306z" id="path14"/>
   <path stroke="null" fill="#02b3e4" d="m82.850996,1.612872l55.646191,0l0,17.926306l-55.646191,0l0,-17.926306z" id="path16"/>
   <path stroke="null" fill="url(#b)" d="m0,-16.313434l138.497187,0l0,17.926306l-138.497187,0l0,-17.926306z" id="path18"/>
  </g>
  <g stroke="null" fill="#fff" text-anchor="middle" font-family="Open Sans,sans-serif" font-size="11" id="g20">
   <text transform="matrix(0.9632598757743835,0,0,0.8092765212059021,0.6464135190410616,0.6750045474879158) " stroke="null" fill="#010101" fill-opacity="0.3" x="58.35658" y="16.53216" id="text22">Udacity</text>
   <text transform="matrix(0.9632598757743835,0,0,0.8092765212059021,0.6464135190410616,0.6750045474879158) " stroke="null" x="58.35658" y="15.53216" id="text24">Udacity</text>
   <text transform="matrix(0.9632598757743835,0,0,0.8092765212059021,0.6464135190410616,0.6750045474879158) " stroke="null" x="113.85658" y="15.53216" fill="#010101" fill-opacity="0.3" id="text26">TensorFlow</text>
   <text transform="matrix(0.9632598757743835,0,0,0.8092765212059021,0.6464135190410616,0.6750045474879158) " stroke="null" x="113.85658" y="15.53216" id="text28">TensorFlow</text>
   <path stroke="null" fill="#02b3e4" d="m26.522482,5.152052l-3.859243,1.858746l0.00236,4.281348l0,0c-0.007061,1.966356 1.884579,3.565195 4.225166,3.571208c0.773922,0.002023 1.500008,-0.170434 2.125597,-0.473249l0,0l3.124632,-1.508224c1.232607,-0.537279 2.076451,-1.617719 2.08093,-2.865074l0.000433,-4.471326l0,0l0,0l-0.764665,-0.375707l-3.136692,1.487232l0.002408,4.654805c-0.000732,0.198046 -0.025209,0.395793 -0.072659,0.587591c-0.046159,0.186635 -0.114695,0.370123 -0.203662,0.545412c-0.02308,0.045344 -0.047575,0.090315 -0.073372,0.134745c-0.093157,-0.008902 -0.116699,-0.012989 -0.258866,-0.03539c-0.20267,-0.035082 -0.604446,-0.131289 -1.088069,-0.393915c-0.16308,-0.093164 -0.316315,-0.200053 -0.455622,-0.317738c-0.13922,-0.117693 -0.26558,-0.247096 -0.375459,-0.384633c-0.110823,-0.138686 -0.205829,-0.286848 -0.282486,-0.440344c-0.077957,-0.156166 -0.137708,-0.319559 -0.177519,-0.485623c-0.040977,-0.170741 -0.050041,-0.346637 -0.049454,-0.522712l0.000144,0l0.002379,-4.471204l-0.766764,-0.375949l0.000482,0zm1.702234,8.83874c-0.20923,0.073685 -0.427986,0.130132 -0.650441,0.16782c-0.228591,0.038724 -0.439256,0.058033 -0.675014,0.057426c-0.235739,-0.000607 -0.471111,-0.02113 -0.699423,-0.061011c-0.221675,-0.038772 -0.440075,-0.096312 -0.648717,-0.171089c-0.205039,-0.073507 -0.402777,-0.164307 -0.587743,-0.269975c-0.183443,-0.104761 -0.355809,-0.225003 -0.512445,-0.357441c-0.156645,-0.132373 -0.298745,-0.277922 -0.422293,-0.432639c-0.124617,-0.156045 -0.231548,-0.322715 -0.317741,-0.495399c-0.087734,-0.17571 -0.15496,-0.359553 -0.199761,-0.54644c-0.046044,-0.192041 -0.054521,-0.389909 -0.053702,-0.587956l-0.000356,-3.907705l3.034673,-1.486981l0.002379,4.097683l-0.000135,0c-0.005895,1.557024 1.286934,2.860582 3.029385,3.174622c-0.068305,0.068521 -0.117643,0.134437 -0.19296,0.197318c-0.15757,0.131588 -0.330822,0.250916 -0.514988,0.354771c-0.185745,0.104761 -0.384129,0.194526 -0.589679,0.266997l-0.00104,0zm5.141197,-3.453579c-0.041102,0.165877 -0.10198,0.328963 -0.181045,0.484716c-0.077716,0.153067 -0.17383,0.300743 -0.285674,0.438887c-0.110929,0.136986 -0.238127,0.265726 -0.378214,0.382747c-0.140087,0.116957 -0.294122,0.223118 -0.457828,0.315432c-0.165093,0.093051 -0.341447,0.172918 -0.524158,0.237264c-0.204962,0.074348 -0.380382,0.115686 -0.578052,0.149125c-0.039927,0.006717 -0.100218,0.012811 -0.140588,0.018209c0.175044,-0.388388 0.292966,-0.809196 0.29469,-1.248932l0,0l0.000944,-4.282076l0.000067,0l2.310909,-1.115345l0,4.097561c-0.000655,0.176139 -0.018957,0.351914 -0.061003,0.522412l-0.000048,0z" class="st3" id="mark_7_"/>
  </g>
  <ellipse id="svg_2" cy="7.986529" cx="102.905832" stroke-width="5" stroke="null" fill="#FF0000"/>
 </g>
</svg>